<svg width="23" height="23" viewBox="0 0 23 23" fill="none" xmlns="http://www.w3.org/2000/svg">
<path d="M15.344 18.6845L8.3405 11.4999L15.344 4.31526C15.4694 4.18689 15.5396 4.01457 15.5396 3.83513C15.5396 3.65569 15.4694 3.48337 15.344 3.35501C15.2831 3.29285 15.2104 3.24347 15.1302 3.20976C15.05 3.17605 14.9638 3.15869 14.8768 3.15869C14.7898 3.15869 14.7037 3.17605 14.6234 3.20976C14.5432 3.24347 14.4705 3.29285 14.4096 3.35501L6.95763 10.9982C6.8268 11.1324 6.75357 11.3124 6.75357 11.4999C6.75357 11.6873 6.8268 11.8673 6.95763 12.0016L14.4082 19.6448C14.4691 19.7074 14.542 19.7571 14.6225 19.7911C14.703 19.825 14.7895 19.8425 14.8768 19.8425C14.9642 19.8425 15.0507 19.825 15.1311 19.7911C15.2116 19.7571 15.2845 19.7074 15.3454 19.6448C15.4708 19.5164 15.541 19.3441 15.541 19.1646C15.541 18.9852 15.4708 18.8129 15.3454 18.6845L15.344 18.6845Z" fill="#D1D1D1"/>
</svg>
