<svg width="42" height="42" viewBox="0 0 42 42" fill="none" xmlns="http://www.w3.org/2000/svg">
<path d="M20.9973 17.7985C19.2346 17.7985 17.796 19.2371 17.796 20.9999C17.796 22.7627 19.2346 24.2013 20.9973 24.2013C22.7601 24.2013 24.1986 22.7627 24.1986 20.9999C24.1986 19.2371 22.7601 17.7985 20.9973 17.7985ZM30.5988 20.9999C30.5988 19.6742 30.6108 18.3605 30.5364 17.0372C30.4619 15.5002 30.1113 14.1361 28.9874 13.0121C27.861 11.8857 26.4993 11.5375 24.9623 11.4631C23.6367 11.3886 22.323 11.4006 20.9997 11.4006C19.6741 11.4006 18.3604 11.3886 17.0371 11.4631C15.5001 11.5375 14.136 11.8881 13.0121 13.0121C11.8857 14.1385 11.5375 15.5002 11.4631 17.0372C11.3886 18.3629 11.4006 19.6766 11.4006 20.9999C11.4006 22.3232 11.3886 23.6393 11.4631 24.9626C11.5375 26.4996 11.8881 27.8637 13.0121 28.9877C14.1384 30.1141 15.5001 30.4623 17.0371 30.5367C18.3628 30.6112 19.6765 30.5992 20.9997 30.5992C22.3254 30.5992 23.6391 30.6112 24.9623 30.5367C26.4993 30.4623 27.8634 30.1117 28.9874 28.9877C30.1137 27.8613 30.4619 26.4996 30.5364 24.9626C30.6132 23.6393 30.5988 22.3256 30.5988 20.9999ZM20.9973 25.9256C18.2715 25.9256 16.0717 23.7257 16.0717 20.9999C16.0717 18.2741 18.2715 16.0742 20.9973 16.0742C23.7231 16.0742 25.923 18.2741 25.923 20.9999C25.923 23.7257 23.7231 25.9256 20.9973 25.9256ZM26.1247 17.0228C25.4883 17.0228 24.9743 16.5089 24.9743 15.8724C24.9743 15.236 25.4883 14.7221 26.1247 14.7221C26.7611 14.7221 27.275 15.236 27.275 15.8724C27.2752 16.0236 27.2456 16.1732 27.1879 16.3129C27.1301 16.4525 27.0454 16.5794 26.9385 16.6863C26.8317 16.7932 26.7048 16.8779 26.5651 16.9356C26.4255 16.9934 26.2758 17.023 26.1247 17.0228Z" fill="#141313"/>
<circle cx="21" cy="21" r="20.5" transform="rotate(90 21 21)" stroke="#D1D1D1"/>
</svg>
