<svg width="50" height="50" fill="none" xmlns="http://www.w3.org/2000/svg"><path fill-rule="evenodd" clip-rule="evenodd" d="M22.577.072C15.643.78 9.192 4.419 5.035 9.963 3.892 11.49 3.26 12.538 2.41 14.317c-4.11 8.616-2.895 18.85 3.127 26.342 6.597 8.205 17.458 11.375 27.482 8.022 3.698-1.238 7.03-3.355 9.854-6.261 2.81-2.893 4.597-5.825 5.85-9.595 3.576-10.755-.54-22.504-10.08-28.774-2.942-1.934-6.43-3.269-9.94-3.805-1.516-.232-4.684-.322-6.126-.174zm5.203 3.27c8.345 1.09 15.368 6.904 17.956 14.863.813 2.5 1.007 3.806 1.005 6.784-.001 2.27-.042 2.855-.283 4.052-1.682 8.349-7.803 14.935-15.833 17.035-2.288.598-3.054.69-5.706.685-2.795-.005-4.225-.22-6.642-1.002-7.458-2.412-13.14-8.782-14.678-16.456C1.411 18.387 7.777 7.606 18.446 4.156c2.852-.922 6.247-1.218 9.334-.815zM12.116 17.43c-.036.06-.056 3.492-.043 7.627l.024 7.52 1.447.034 1.447.035.033-5.475.032-5.476 2.386 3.258c2.062 2.815 2.425 3.252 2.676 3.22.22-.03 1.227-1.29 4.25-5.324 2.179-2.907 3.933-5.314 3.899-5.348-.035-.034-.802-.057-1.705-.05-1.612.013-1.648.02-1.904.334-.144.176-1.198 1.617-2.343 3.201-1.145 1.585-2.113 2.884-2.151 2.887-.039.003-1.117-1.439-2.396-3.203l-2.325-3.208h-1.447c-.796 0-1.53-.031-1.63-.07-.1-.038-.213-.021-.25.038zm17.942 1.235l-.992 1.326 2.616.062c2.501.06 2.642.076 3.227.377.844.435 1.293 1.103 1.379 2.054.081.899-.098 1.504-.623 2.103-.772.879-.84.89-5.845.892l-4.47.003v7.156h2.838v-4.564l3.236-.002c3.513-.001 4.006-.067 5.138-.683 2.924-1.593 3.512-6.04 1.113-8.417-1.239-1.226-2.483-1.627-5.066-1.63l-1.558-.002-.992 1.326z" fill="#ECECEC"/></svg>