<svg width="171" height="47" viewBox="0 0 171 47" fill="none" xmlns="http://www.w3.org/2000/svg">
<path fill-rule="evenodd" clip-rule="evenodd" d="M9.20364 0.0687177C8.28471 0.243631 6.51255 1.32333 5.13483 2.54766C2.37855 4.99707 0.268968 8.92627 0.0162975 12.0811C-0.072201 13.1865 0.205411 14.5731 0.710682 15.5492C1.625 17.3154 3.67514 18.9116 5.10273 18.9688C5.40004 18.9808 5.47465 18.9571 5.59596 18.8119C5.83474 18.5262 5.74376 18.1316 5.26428 17.3728C4.51895 16.1934 4.22597 15.2984 4.08716 13.777C3.8099 10.738 4.95025 6.94344 6.89842 4.42247C7.45103 3.70736 8.33998 2.86809 8.51861 2.89281L8.66457 2.91307L8.647 15.2745C8.63658 22.5691 8.59938 28.2113 8.55616 29.0397C8.44024 31.2623 8.26778 32.3013 7.73516 33.9864C7.45747 34.8648 7.40426 35.3438 7.56354 35.53C7.81572 35.8249 8.90491 35.4797 9.83857 34.8088C11.5649 33.5684 12.7009 31.4598 13.1281 28.7024C13.3677 27.1564 13.4015 25.2954 13.4068 13.381L13.4119 1.66698L13.2233 1.39084C12.8454 0.837184 11.734 0.294793 10.5765 0.09914C9.89823 -0.0154775 9.67228 -0.0204903 9.20364 0.0687177ZM56.2127 0.0623309C55.8841 0.123657 55.6414 0.366422 55.5415 0.733761C55.4651 1.01443 55.3546 2.91012 55.2806 5.20645L55.2333 6.67574L54.4456 6.63213C54.0123 6.60817 52.9542 6.56799 52.0942 6.54293L50.5306 6.49739L50.3671 6.66242C49.9793 7.05393 49.6545 8.04504 49.6545 8.83693C49.6545 9.46804 49.7757 9.7253 50.0975 9.77694C50.2241 9.79727 51.3639 9.83731 52.6304 9.86587L54.9332 9.91786L54.9434 15.0341L54.9536 20.1503L54.7555 20.9151C54.2892 22.7151 53.2881 24.4557 51.9392 25.8117L51.3542 26.3997L51.4078 26.022C51.4977 25.3872 51.4606 24.3046 51.3324 23.8244C51.0372 22.7195 50.1591 21.4402 49.0634 20.5191C48.7455 20.2519 47.5926 19.383 46.5014 18.5883C45.4102 17.7936 44.4757 17.1063 44.4247 17.0609C44.3497 16.9941 44.4195 16.8659 44.7903 16.3895C45.5126 15.4612 46.1593 14.3189 46.4712 13.4203C46.7019 12.7556 46.711 11.8256 46.4906 11.4287C46.2896 11.0668 46.0793 10.8842 45.6503 10.6995C45.1678 10.4917 44.0765 10.443 43.3926 10.5987C41.9378 10.9299 40.5892 12.1101 39.9714 13.5927C39.7734 14.0676 39.593 14.9036 39.593 15.3458C39.593 16.0723 39.9552 16.9937 40.5228 17.7115L40.8208 18.0883L40.384 18.9133C38.7758 21.9505 36.2838 25.9775 35.4364 26.9086C34.8207 27.5852 34.1818 27.8462 33.8945 27.5386C33.6849 27.3142 33.5088 26.6158 33.4217 25.6643C33.3171 24.5215 33.3705 20.1989 33.5358 16.4291C33.6691 13.3891 33.6594 13.2866 33.1826 12.6813C32.7032 12.0729 30.8399 11.0456 29.9494 10.8987C29.583 10.8383 29.3908 10.8449 28.947 10.9331C27.6138 11.1979 26.4526 12.1025 25.3136 13.7636C24.3025 15.2381 23.6667 16.5782 22.5272 19.6353C22.1401 20.674 21.7896 21.6011 21.7483 21.6955C21.695 21.8174 21.6858 20.4488 21.7167 16.9791C21.767 11.3413 21.836 11.8727 21.0055 11.4941C19.974 11.0238 18.601 10.7496 18.0922 10.9124C17.5616 11.0821 17.6048 10.4116 17.5402 19.4907C17.4767 28.417 17.5006 29.4017 17.8027 30.3288C18.0138 30.9763 18.3844 31.4345 18.8489 31.6224C19.2429 31.7818 20.8858 31.8473 21.3474 31.722C21.8407 31.5882 21.8827 31.5044 22.0604 30.2969C22.3262 28.4925 23.0048 25.8093 23.7931 23.4467C24.5352 21.2228 25.7929 18.5123 26.8044 16.957C27.717 15.5539 28.7622 14.3524 28.9949 14.4389C29.1377 14.4921 29.1413 14.2571 28.9224 19.1754C28.6584 25.1044 28.7252 27.3708 29.2172 29.181C29.5534 30.4179 30.0705 31.1801 30.8409 31.5743C31.1664 31.7409 31.2659 31.7562 32.0115 31.7556C32.7365 31.755 32.8753 31.7347 33.271 31.5708C34.6367 31.0055 36.2643 29.4783 37.6684 27.4447C37.9348 27.0588 39.0858 25.2288 40.2262 23.378C41.3667 21.5273 42.3462 19.9417 42.4031 19.8546C42.5062 19.6968 42.5094 19.6988 43.2995 20.4018C45.6604 22.5024 46.4511 23.4216 46.9098 24.5987C47.1094 25.1108 47.13 25.2375 47.1305 25.9533C47.1309 26.585 47.1014 26.821 46.983 27.1323C46.666 27.9664 46.104 28.4835 45.3495 28.6353C44.599 28.7863 43.7152 28.4775 42.5724 27.665C41.6798 27.0304 41.5849 26.984 41.1797 26.9837C40.8775 26.9835 40.7667 27.0216 40.5066 27.2149C39.9683 27.6152 39.4968 28.2824 39.2391 29.0084C38.9119 29.9301 39.1705 30.381 40.3584 30.9596C41.0925 31.3172 41.7024 31.4921 42.9111 31.6917C44.9999 32.0366 46.9823 31.868 48.6361 31.2051C51.0742 30.2277 53.0548 28.1718 54.5845 25.0307C54.8153 24.557 55.028 24.169 55.0572 24.1685C55.0865 24.1681 55.1104 24.2837 55.1104 24.4253C55.1104 24.8109 55.3642 26.2418 55.5661 26.9938C56.1574 29.1972 57.2246 30.7013 58.6718 31.3708C58.9928 31.5194 59.4244 31.6746 59.6309 31.7158C60.2095 31.8312 61.1807 31.8058 61.603 31.6644C62.7523 31.2794 64.1072 30.0232 65.0418 28.4762C65.3352 27.9905 65.8903 26.8547 65.9822 26.5518C66.0176 26.4352 66.0911 26.5755 66.298 27.1551C66.6625 28.1767 66.8692 28.6042 67.3199 29.2695C68.0193 30.3017 68.7189 30.9199 69.6712 31.3473C70.4921 31.7157 71.0546 31.8144 72.0973 31.7731C73.1222 31.7325 73.6377 31.6039 74.5602 31.1589C75.8676 30.5281 77.092 29.3544 77.8572 27.9982C78.0763 27.61 78.0759 27.6098 78.2073 28.2539C78.2536 28.4805 78.4367 28.9595 78.6144 29.3184C79.0696 30.2377 79.7412 30.8885 80.6892 31.329C81.453 31.6839 81.8972 31.7907 82.6095 31.7907C83.5931 31.7907 84.516 31.4658 85.3363 30.8309C85.8197 30.4568 86.4977 29.6001 86.8382 28.9331L87.0902 28.4395L87.4502 29.0274C88.3254 30.4567 89.6875 31.448 91.1561 31.7247C91.8696 31.8591 93.1438 31.7788 93.8683 31.5537C95.2837 31.1139 96.6963 30.1114 97.4823 28.9887C97.6185 28.7943 97.7539 28.6344 97.7831 28.6334C97.8123 28.6325 97.8363 29.0308 97.8363 29.5188C97.8363 30.0067 97.8527 30.4475 97.8728 30.4983C97.8954 30.5554 97.2149 31.2051 96.0862 32.2036C91.0802 36.6325 89.5731 38.3601 88.8981 40.4438C88.751 40.8978 88.7318 41.0885 88.7353 42.0575C88.739 43.0603 88.7553 43.1997 88.9227 43.653C89.1731 44.3311 89.4233 44.726 89.9306 45.2438C90.8719 46.2045 92.1994 46.788 93.8506 46.9667C95.1785 47.1105 96.617 46.784 97.8086 46.0682C98.5222 45.6396 99.5909 44.6606 100.013 44.049C101.036 42.565 101.666 40.3791 101.952 37.3189C102.011 36.6926 102.022 35.4297 101.99 33.0878L101.945 29.7494L102.607 28.9673C105.641 25.3844 108.225 21.02 109.818 16.7853L110.154 15.8925L111.806 15.842C113.123 15.8017 113.476 15.8096 113.549 15.881C113.625 15.9545 113.604 16.1349 113.43 16.893C112.881 19.2874 112.689 20.8812 112.684 23.1033C112.68 24.9266 112.741 25.5569 113.035 26.757C113.625 29.1585 114.979 30.8041 116.959 31.5263C117.52 31.731 117.638 31.7492 118.42 31.7521C119.365 31.7556 119.758 31.6555 120.493 31.2249C121.286 30.7599 122.249 29.7363 122.593 28.9915C122.667 28.8313 122.751 28.7003 122.779 28.7003C122.807 28.7003 122.953 28.9066 123.105 29.1588C123.462 29.7538 124.368 30.6814 124.925 31.0209C125.9 31.6153 126.759 31.8261 128.005 31.7759C128.715 31.7472 128.941 31.7074 129.563 31.5007C131.181 30.9629 132.507 29.8939 133.515 28.3153L133.927 27.669L134.093 28.2362C134.618 30.0358 135.869 31.2753 137.585 31.6945C138.228 31.8516 139.453 31.7988 139.996 31.5905C140.938 31.2295 141.729 30.4361 142.397 29.1847L142.744 28.536L142.789 29.1504C142.925 30.9707 142.981 31.1184 143.644 31.4209C144.298 31.7185 144.932 31.8107 146.078 31.7744C146.649 31.7563 147.201 31.7081 147.304 31.6672C147.569 31.5628 147.78 31.3228 147.859 31.0382C147.895 30.9043 147.959 29.8832 148 28.769C148.125 25.3495 148.255 24.2292 148.75 22.3136C149.273 20.2901 149.966 18.402 150.671 17.0784C151.056 16.3569 151.229 16.1329 151.402 16.1329C151.553 16.1329 151.584 16.426 151.651 18.5022C151.792 22.8659 152.416 27.5157 153.014 28.666C153.378 29.366 154.039 29.913 154.761 30.1117C155.33 30.2683 156.339 30.225 156.801 30.0241C157.25 29.8284 157.355 29.6139 157.355 28.8864C157.355 26.6518 158.091 22.6215 158.991 19.9308C159.478 18.4734 160.565 15.8582 160.684 15.8582C160.711 15.8582 160.731 17.3493 160.73 19.1717C160.725 25.2692 161.123 27.74 162.416 29.6233C163.131 30.6642 164.174 31.4048 165.323 31.687C165.848 31.8157 166.837 31.8198 167.319 31.6952C168.925 31.2809 170.085 29.7841 170.675 27.3662C171.086 25.6846 171.106 24.7296 170.742 24.2803C170.452 23.9239 169.92 23.9974 169.66 24.4297C169.585 24.5549 169.386 25.1771 169.218 25.8125C168.878 27.0971 168.573 27.9127 168.283 28.3159C167.488 29.419 166.34 29.2438 165.682 27.9191C165.41 27.3703 165.127 26.3958 165.011 25.61C164.792 24.124 164.729 19.9325 164.872 16.4419C164.997 13.379 164.995 13.1886 164.819 12.8691C164.454 12.2079 163.552 11.6441 162.078 11.1559C160.669 10.6896 159.812 10.8558 159.305 11.694C158.872 12.4105 157.626 15.7638 157 17.8965C156.533 19.4891 155.94 22.1238 155.938 22.6192C155.938 22.6604 155.913 22.6604 155.872 22.6192C155.712 22.4615 155.464 18.8586 155.404 15.8239C155.381 14.6907 155.331 13.5628 155.291 13.3174C155.119 12.2531 154.421 11.5922 152.962 11.1124C152.096 10.8277 151.255 10.7969 150.792 11.0331C150.091 11.3908 149.45 12.7737 147.887 17.3004L147.116 19.5323L147.081 15.7552C147.047 12.1905 147.038 11.9672 146.911 11.7857C146.837 11.6799 146.693 11.5515 146.591 11.5004C146.233 11.3209 144.567 10.9651 143.924 10.9307C143.325 10.8986 143.271 10.907 143.09 11.0595C142.946 11.1813 142.88 11.3207 142.833 11.6091C142.798 11.8217 142.749 14.7111 142.724 18.0302C142.675 24.7297 142.696 24.4244 142.177 25.8842C141.698 27.2329 140.976 28.4305 140.375 28.8751C139.716 29.3621 138.949 29.3296 138.423 28.7923C137.981 28.3412 137.67 27.3 137.522 25.7816C137.363 24.1533 137.354 22.1349 137.483 17.2725L137.613 12.3553L137.376 12.1183C136.911 11.6526 135.733 11.2716 134.575 11.2115C134.049 11.1844 133.895 11.2005 133.694 11.3036C133.293 11.5101 133.164 11.7451 133.134 12.3218L133.107 12.8303L132.842 12.5072C131.663 11.0721 130.244 10.4306 128.449 10.5212C126.246 10.6324 124.476 12.0455 123.097 14.7937C122.427 16.129 122.006 17.5983 121.737 19.5437C121.564 20.8013 121.567 23.9636 121.743 25.0262C121.961 26.3435 121.961 26.3113 121.751 26.9284C121.249 28.4108 120.476 29.1983 119.518 29.2053C118.582 29.2121 117.902 28.4591 117.436 26.9006C117.152 25.9502 117.034 24.9154 117.035 23.3774C117.036 21.2491 117.189 20.133 117.902 17.0257C118.419 14.7727 118.459 14.263 118.164 13.6606C117.581 12.4716 116.59 12.2434 114.133 12.733C113.451 12.869 112.435 13.0516 111.876 13.1389L110.859 13.2975L110.92 12.8438C111.009 12.1689 110.982 11.395 110.858 11.1146C110.71 10.7789 110.338 10.3822 110.026 10.2283C109.343 9.89032 108.331 9.91614 107.495 10.293C106.428 10.7734 105.694 12.0626 105.696 13.4546C105.696 14.3436 105.981 14.972 106.652 15.5663L107.041 15.9107L106.836 16.6571C106.161 19.113 104.958 21.7807 103.387 24.3053C102.742 25.3416 101.995 26.4314 101.928 26.4329C101.85 26.4346 101.864 22.4279 101.959 17.3347C102.059 12.0398 102.063 12.3812 101.896 12.1574C101.59 11.7459 100.234 11.287 99.1116 11.2155C98.5736 11.1813 98.4759 11.1942 98.1947 11.3373C97.7322 11.5726 97.5978 11.7901 97.5647 12.3574L97.5369 12.8354L97.3918 12.6471C97.312 12.5436 97.0525 12.2629 96.8152 12.0235C95.706 10.9044 94.4892 10.4399 92.8796 10.5212C91.4734 10.5922 90.4178 11.0896 89.3327 12.1924C87.5226 14.0321 86.3569 17.0671 86.0695 20.6893C85.9678 21.9701 86.023 24.4746 86.1711 25.3009C86.2655 25.8276 86.2624 25.8744 86.0978 26.434C85.8624 27.2345 85.414 28.0886 84.9971 28.5307C84.4117 29.1516 84.0172 29.3067 83.3675 29.1716C82.4594 28.9829 81.9504 27.9721 81.6779 25.816C81.5318 24.6601 81.5179 20.8203 81.6445 16.5541C81.7661 12.455 81.7659 12.4065 81.6292 12.2277C81.3266 11.8315 80.6658 11.5371 79.591 11.3194C78.3929 11.0766 77.7855 11.1738 77.449 11.6621C77.3197 11.8495 77.288 11.9912 77.2874 12.3831L77.2866 12.8709L77.0984 12.6305C76.7582 12.1961 75.9857 11.4981 75.5168 11.2017C74.8475 10.7787 74.0958 10.5634 73.1431 10.5221C72.1783 10.4802 71.528 10.6014 70.734 10.9713C68.7638 11.8892 67.0753 14.293 66.3126 17.266C65.9841 18.5463 65.6678 20.9347 65.6678 22.1354C65.6678 24.6769 63.5885 28.1852 61.8559 28.5671C61.3605 28.6763 60.8483 28.3407 60.4996 27.6782C60.1034 26.9255 59.829 25.4795 59.7488 23.7214C59.6796 22.2049 59.9774 11.0351 60.1079 10.2547L60.1434 10.0422L63.0154 10.0028C66.226 9.95886 66.0879 9.98118 66.4033 9.45479C66.7814 8.82367 66.9206 7.63464 66.6474 7.36977C66.4347 7.16361 65.8866 7.11031 62.1251 6.92998C61.2872 6.8898 60.5095 6.83919 60.3968 6.81749L60.1919 6.778L60.24 5.46357C60.2664 4.74071 60.32 3.52489 60.359 2.76178C60.4156 1.65496 60.4115 1.34496 60.3387 1.22883C60.2088 1.02158 59.2306 0.583639 58.4406 0.378989C57.8884 0.23594 56.5322 -0.0273574 56.5005 0.00230995C56.4959 0.00663644 56.3664 0.0336937 56.2127 0.0623309ZM75.1856 14.0669C76.3186 14.5985 76.9874 16.0278 77.2127 18.3991C77.5197 21.632 76.8899 25.3899 75.7198 27.307C75.3692 27.8814 74.571 28.6395 74.0691 28.8749C72.9791 29.386 71.9257 28.9442 71.2461 27.6909C70.5579 26.4215 70.2667 24.8425 70.267 22.3823C70.2674 19.5532 70.6866 17.3003 71.5002 15.7552C71.8834 15.0272 72.6864 14.2279 73.2494 14.0139C73.7851 13.8103 74.6914 13.835 75.1856 14.0669ZM95.5443 14.0138C96.9345 14.5179 97.5528 16.3092 97.5528 19.8329C97.5528 21.6694 97.4772 22.5337 97.1969 23.8983C96.6918 26.3584 95.876 27.9404 94.7298 28.6821C93.5445 29.4493 92.4242 29.1483 91.6082 27.8433C90.8978 26.7073 90.4658 24.2492 90.5638 21.9015C90.746 17.5363 91.9646 14.6392 93.8896 13.9945C94.3977 13.8243 95.0426 13.8319 95.5443 14.0138ZM130.903 14.0146C131.632 14.279 132.254 15.0447 132.623 16.1329C133.189 17.8035 133.287 21.2561 132.837 23.6787C132.449 25.7676 131.586 27.6477 130.658 28.4232C130.114 28.8783 129.63 29.0738 129.048 29.0739C128.426 29.074 128.11 28.9238 127.606 28.3896C126.622 27.3456 126.16 25.4518 126.158 22.4509C126.155 18.693 126.795 16.0749 128.028 14.7973C128.709 14.0918 129.165 13.8795 130.02 13.8712C130.343 13.8681 130.626 13.914 130.903 14.0146ZM98.0264 36.2888C97.9729 39.3913 97.7395 41.1272 97.1667 42.6805C96.7386 43.8413 96.2883 44.4048 95.4873 44.7825C94.1372 45.4191 92.7559 45.0152 92.177 43.8146C92.0144 43.4775 91.9919 43.3434 91.9919 42.7099C91.9918 41.9076 92.0941 41.4561 92.4883 40.519C93.1312 38.9908 94.3899 37.3581 96.8312 34.8857C97.7457 33.9597 98.0193 33.7187 98.04 33.8213C98.0547 33.8942 98.0486 35.0046 98.0264 36.2888Z" fill="#141313"/>
</svg>
