<svg width="23" height="23" viewBox="0 0 23 23" fill="none" xmlns="http://www.w3.org/2000/svg">
<path d="M7.656 4.31549L14.6595 11.5001L7.656 18.6847C7.53062 18.8131 7.46042 18.9854 7.46042 19.1649C7.46042 19.3443 7.53062 19.5166 7.656 19.645C7.7169 19.7071 7.78958 19.7565 7.86981 19.7902C7.95003 19.8239 8.03617 19.8413 8.12319 19.8413C8.2102 19.8413 8.29634 19.8239 8.37656 19.7902C8.45679 19.7565 8.52947 19.7071 8.59037 19.645L16.0424 12.0018C16.1732 11.8676 16.2464 11.6876 16.2464 11.5001C16.2464 11.3127 16.1732 11.1327 16.0424 10.9984L8.59181 3.35524C8.53087 3.29265 8.458 3.2429 8.37751 3.20893C8.29702 3.17496 8.21055 3.15746 8.12318 3.15746C8.03582 3.15746 7.94934 3.17496 7.86886 3.20893C7.78837 3.2429 7.7155 3.29265 7.65456 3.35524C7.52918 3.48361 7.45898 3.65593 7.45898 3.83537C7.45898 4.01481 7.52918 4.18713 7.65456 4.31549L7.656 4.31549Z" fill="#141313"/>
</svg>
