<svg width="171" height="47" fill="none" xmlns="http://www.w3.org/2000/svg"><path fill-rule="evenodd" clip-rule="evenodd" d="M9.204.069c-.92.175-2.691 1.254-4.07 2.479C2.38 4.998.27 8.926.017 12.08c-.088 1.106.19 2.492.695 3.468.914 1.766 2.964 3.363 4.392 3.42.297.012.372-.012.493-.157.239-.286.148-.68-.332-1.44-.745-1.179-1.038-2.074-1.177-3.595-.277-3.039.863-6.834 2.811-9.355.553-.715 1.442-1.554 1.62-1.53l.147.021-.018 12.361c-.01 7.295-.048 12.937-.09 13.766-.117 2.222-.29 3.261-.822 4.946-.278.879-.33 1.358-.171 1.544.252.295 1.34-.05 2.275-.721 1.726-1.24 2.862-3.35 3.29-6.107.239-1.546.273-3.407.278-15.321l.005-11.714-.189-.276C12.845.837 11.734.295 10.576.099c-.678-.114-.904-.12-1.372-.03zM56.213.062c-.329.062-.572.304-.672.672-.076.28-.186 2.176-.26 4.472l-.048 1.47-.787-.044c-.434-.024-1.492-.064-2.352-.09l-1.563-.045-.164.165c-.388.392-.712 1.383-.712 2.175 0 .631.12.888.442.94.127.02 1.267.06 2.533.089l2.303.052.01 5.116.01 5.116-.198.765c-.466 1.8-1.467 3.54-2.816 4.897l-.585.588.054-.378c.09-.635.053-1.717-.076-2.198-.295-1.105-1.173-2.384-2.269-3.305-.318-.267-1.47-1.136-2.562-1.93a150.21 150.21 0 01-2.076-1.528c-.075-.067-.005-.195.365-.671.723-.929 1.37-2.071 1.681-2.97.23-.664.24-1.594.02-1.991-.201-.362-.412-.545-.84-.73-.483-.207-1.575-.256-2.258-.1-1.455.33-2.804 1.511-3.422 2.994-.198.475-.378 1.31-.378 1.753 0 .726.362 1.648.93 2.366l.298.376-.437.825c-1.608 3.038-4.1 7.064-4.948 7.996-.615.676-1.254.937-1.541.63-.21-.225-.386-.923-.473-1.875-.105-1.143-.051-5.465.114-9.235.133-3.04.123-3.142-.353-3.748-.48-.608-2.343-1.635-3.234-1.782-.366-.06-.558-.054-1.002.034-1.333.265-2.494 1.17-3.633 2.83-1.012 1.475-1.647 2.815-2.787 5.872a136.116 136.116 0 01-.779 2.06c-.053.122-.062-1.246-.031-4.716.05-5.638.119-5.106-.711-5.485-1.032-.47-2.405-.744-2.914-.582-.53.17-.487-.5-.552 8.579-.063 8.926-.04 9.91.263 10.838.21.647.581 1.105 1.046 1.293.394.16 2.037.225 2.498.1.494-.134.536-.218.713-1.425.266-1.805.945-4.488 1.733-6.85.742-2.224 2-4.935 3.011-6.49.913-1.403 1.958-2.605 2.19-2.518.144.053.147-.182-.072 4.736-.264 5.93-.197 8.196.295 10.006.336 1.237.854 2 1.624 2.393.325.167.425.182 1.17.182.725-.001.864-.021 1.26-.185 1.366-.566 2.993-2.093 4.397-4.126.267-.386 1.418-2.216 2.558-4.067a898.85 898.85 0 012.177-3.523c.103-.158.106-.156.897.547 2.36 2.1 3.151 3.02 3.61 4.197.2.512.22.639.22 1.354 0 .632-.029.868-.147 1.18-.317.833-.879 1.35-1.633 1.502-.751.151-1.635-.158-2.778-.97-.892-.635-.987-.681-1.392-.681-.303 0-.413.038-.673.23-.539.401-1.01 1.068-1.268 1.794-.327.922-.069 1.373 1.12 1.952.733.357 1.343.532 2.552.732 2.089.345 4.071.176 5.725-.487 2.438-.977 4.419-3.033 5.948-6.174.231-.474.444-.862.473-.862.03 0 .053.115.053.256 0 .386.254 1.817.456 2.569.591 2.203 1.659 3.707 3.106 4.377.32.148.752.304.959.345.578.115 1.55.09 1.972-.052 1.15-.385 2.504-1.64 3.439-3.188.293-.485.848-1.621.94-1.924.036-.117.11.024.316.603.364 1.022.571 1.45 1.022 2.114.7 1.033 1.399 1.65 2.351 2.078.821.369 1.384.467 2.426.426 1.025-.04 1.54-.17 2.463-.614 1.308-.63 2.532-1.805 3.297-3.16.22-.389.219-.39.35.255.047.226.23.705.407 1.064.456.92 1.127 1.57 2.075 2.011.764.355 1.208.462 1.92.462.984 0 1.907-.325 2.727-.96.484-.374 1.162-1.23 1.502-1.898l.252-.494.36.588c.875 1.43 2.237 2.421 3.706 2.698.714.134 1.988.054 2.712-.171 1.416-.44 2.828-1.443 3.614-2.565.136-.195.272-.355.301-.356.03 0 .053.398.053.886s.017.929.037.98c.022.056-.658.706-1.787 1.705-5.006 4.428-6.513 6.156-7.188 8.24-.147.454-.166.645-.163 1.613.004 1.003.02 1.143.188 1.596.25.678.5 1.073 1.008 1.59.94.962 2.268 1.545 3.92 1.724 1.328.144 2.766-.183 3.958-.899.713-.428 1.782-1.407 2.204-2.019 1.023-1.484 1.653-3.67 1.939-6.73.059-.626.07-1.89.038-4.231l-.045-3.339.662-.782c3.034-3.583 5.618-7.947 7.211-12.182l.336-.893 1.652-.05c1.317-.04 1.67-.032 1.743.039.076.073.055.254-.119 1.012-.549 2.394-.741 3.988-.746 6.21-.004 1.824.057 2.454.351 3.654.59 2.401 1.944 4.047 3.924 4.77.561.204.679.222 1.461.225.945.004 1.338-.096 2.073-.527.793-.465 1.756-1.489 2.1-2.234.074-.16.158-.29.186-.29.028 0 .174.206.326.458.357.595 1.263 1.522 1.82 1.862.975.594 1.834.805 3.08.755.71-.029.936-.069 1.558-.275 1.618-.538 2.944-1.607 3.952-3.186l.412-.646.166.567c.525 1.8 1.776 3.04 3.492 3.459.643.157 1.868.104 2.411-.105.942-.36 1.733-1.154 2.401-2.405l.347-.649.045.614c.136 1.82.192 1.968.855 2.27.654.298 1.288.39 2.434.354.571-.018 1.123-.066 1.226-.107a.955.955 0 00.555-.629c.036-.134.1-1.155.141-2.269.125-3.42.255-4.54.75-6.455.523-2.024 1.216-3.912 1.921-5.236.385-.721.558-.945.731-.945.151 0 .182.293.249 2.37.141 4.363.765 9.013 1.363 10.163.364.7 1.025 1.247 1.747 1.446.569.156 1.578.113 2.04-.088.449-.196.554-.41.554-1.138 0-2.234.736-6.264 1.636-8.955.487-1.458 1.574-4.073 1.693-4.073.027 0 .047 1.491.046 3.314-.005 6.097.393 8.568 1.686 10.451.715 1.041 1.758 1.782 2.907 2.064.525.129 1.514.133 1.996.008 1.606-.414 2.766-1.91 3.356-4.329.411-1.681.431-2.636.067-3.086-.29-.356-.822-.283-1.082.15-.075.125-.274.747-.442 1.383-.34 1.284-.645 2.1-.935 2.503-.795 1.103-1.943.928-2.601-.397-.272-.549-.555-1.523-.671-2.309-.219-1.486-.282-5.677-.139-9.168.125-3.063.123-3.253-.053-3.573-.365-.661-1.267-1.225-2.741-1.713-1.409-.466-2.266-.3-2.773.538-.433.716-1.679 4.07-2.305 6.202-.467 1.593-1.06 4.228-1.062 4.723 0 .041-.025.041-.066 0-.16-.157-.408-3.76-.468-6.795-.023-1.133-.073-2.261-.113-2.507-.172-1.064-.87-1.725-2.329-2.205-.866-.284-1.707-.315-2.17-.079-.701.358-1.342 1.74-2.905 6.267l-.771 2.232-.035-3.777c-.034-3.565-.043-3.788-.17-3.97a1.04 1.04 0 00-.32-.285c-.358-.18-2.024-.535-2.667-.57-.599-.031-.653-.023-.834.13-.144.121-.21.26-.257.55-.035.212-.084 3.101-.109 6.42-.049 6.7-.028 6.394-.547 7.854-.479 1.349-1.201 2.546-1.802 2.991-.659.487-1.426.455-1.952-.083-.442-.45-.753-1.492-.901-3.01-.159-1.629-.168-3.647-.039-8.51l.13-4.917-.237-.237c-.465-.465-1.643-.846-2.801-.907-.526-.027-.68-.01-.881.093-.401.206-.53.441-.56 1.018l-.027.508-.265-.323c-1.179-1.435-2.598-2.076-4.393-1.986-2.203.111-3.973 1.524-5.352 4.273-.67 1.335-1.091 2.804-1.36 4.75-.173 1.257-.17 4.42.006 5.482.218 1.317.218 1.285.008 1.902-.502 1.483-1.275 2.27-2.233 2.277-.936.007-1.616-.746-2.082-2.304-.284-.95-.402-1.986-.401-3.524.001-2.128.154-3.244.867-6.351.517-2.253.557-2.763.262-3.365-.583-1.19-1.574-1.418-4.031-.928-.682.136-1.698.319-2.257.406l-1.017.159.061-.454c.089-.675.062-1.449-.062-1.73-.148-.335-.52-.732-.832-.886-.683-.338-1.695-.312-2.531.065-1.067.48-1.801 1.77-1.799 3.162 0 .889.285 1.517.956 2.111l.389.345-.205.746c-.675 2.456-1.878 5.124-3.449 7.648-.645 1.037-1.392 2.126-1.459 2.128-.078.002-.064-4.005.031-9.098.1-5.295.104-4.954-.063-5.178-.306-.411-1.662-.87-2.784-.941-.538-.035-.636-.022-.917.121-.463.236-.597.453-.63 1.02l-.028.478-.145-.188a9.946 9.946 0 00-.577-.623c-1.109-1.12-2.326-1.584-3.935-1.503-1.407.071-2.462.569-3.547 1.671-1.81 1.84-2.976 4.875-3.263 8.497-.102 1.281-.047 3.786.101 4.612.094.527.091.573-.073 1.133-.236.8-.684 1.655-1.1 2.097-.586.62-.98.776-1.63.64-.909-.188-1.418-1.199-1.69-3.355-.146-1.156-.16-4.996-.034-9.262.122-4.099.122-4.147-.015-4.326-.302-.396-.963-.69-2.038-.909-1.198-.242-1.805-.145-2.142.343-.13.188-.161.33-.162.721v.488l-.189-.24c-.34-.435-1.112-1.133-1.581-1.43-.67-.422-1.421-.638-2.374-.679-.965-.042-1.615.08-2.409.45-1.97.917-3.659 3.321-4.421 6.294-.329 1.28-.645 3.669-.645 4.87 0 2.54-2.08 6.05-3.812 6.431-.495.11-1.008-.226-1.356-.889-.397-.753-.671-2.198-.751-3.957-.07-1.516.228-12.686.359-13.466l.035-.213 2.872-.04c3.211-.043 3.073-.02 3.388-.547.378-.631.518-1.82.244-2.085-.212-.206-.76-.26-4.522-.44-.838-.04-1.615-.09-1.728-.113l-.205-.039.048-1.314c.026-.723.08-1.94.119-2.702.057-1.107.052-1.417-.02-1.533-.13-.207-1.108-.645-1.898-.85-.553-.143-1.909-.406-1.94-.377a3.697 3.697 0 01-.288.06zm18.973 14.005c1.133.531 1.801 1.96 2.027 4.332.307 3.233-.323 6.99-1.493 8.908-.35.574-1.149 1.333-1.65 1.568-1.09.511-2.144.07-2.824-1.184-.688-1.27-.98-2.848-.979-5.309 0-2.829.42-5.082 1.233-6.627.383-.728 1.186-1.527 1.75-1.741.535-.204 1.441-.179 1.936.053zm20.358-.053c1.39.504 2.009 2.295 2.009 5.819 0 1.836-.076 2.7-.356 4.065-.505 2.46-1.321 4.042-2.467 4.784-1.186.767-2.306.466-3.122-.839-.71-1.136-1.142-3.594-1.044-5.942.182-4.365 1.4-7.262 3.326-7.906a2.658 2.658 0 011.654.019zm35.359 0c.729.265 1.351 1.03 1.72 2.119.566 1.67.664 5.123.214 7.546-.388 2.089-1.251 3.969-2.179 4.744-.544.455-1.028.65-1.61.65-.622.001-.938-.15-1.442-.683-.984-1.044-1.446-2.938-1.448-5.94-.003-3.757.637-6.375 1.87-7.653.681-.705 1.137-.918 1.992-.926a2.45 2.45 0 01.883.144zM98.026 36.29c-.053 3.102-.286 4.838-.86 6.392-.427 1.16-.878 1.724-1.679 2.102-1.35.636-2.731.232-3.31-.968-.163-.337-.185-.472-.185-1.105 0-.802.102-1.254.496-2.191.643-1.528 1.902-3.16 4.343-5.633.915-.926 1.188-1.167 1.209-1.065.015.073.009 1.184-.014 2.468z" fill="#141313"/></svg>